<svg width="20" height="25" viewBox="0 0 20 25" fill="none" xmlns="http://www.w3.org/2000/svg">
<path d="M16.091 13.5679C16.091 11.6979 17.0693 9.93791 18.6997 8.94791C17.7215 7.51791 16.091 6.63791 14.3519 6.52791C12.5041 6.30791 10.7649 7.62791 9.78668 7.62791C8.80842 7.62791 7.39537 6.52791 5.87363 6.52791C3.80842 6.63791 1.96059 7.73791 0.982329 9.49791C-1.08289 13.1279 0.438852 18.6279 2.50407 21.5979C3.48233 23.0279 4.67798 24.6779 6.19972 24.6779C7.72146 24.5679 8.26494 23.6879 10.1128 23.6879C11.9606 23.6879 12.3954 24.6779 14.0258 24.6779C15.6562 24.6779 16.6345 23.2479 17.6128 21.7079C18.3736 20.7179 18.9171 19.5079 19.2432 18.2979C17.2867 17.6379 16.091 15.6579 16.091 13.5679Z" fill="white"/>
<path d="M13.0474 4.65688C13.917 3.55688 14.3518 2.23688 14.2431 0.806885C12.9387 0.916885 11.6344 1.57688 10.7648 2.67688C9.89524 3.66688 9.46045 4.98689 9.56915 6.41689C10.9822 6.41689 12.1778 5.75689 13.0474 4.65688Z" fill="white"/>
</svg>
