<svg width="44" height="44" viewBox="0 0 44 44" fill="none" xmlns="http://www.w3.org/2000/svg">
<g clipPath="url(#clip0_937_10042)">
<path d="M37.216 15.2236C37.2161 15.0449 37.1475 14.8661 37.0169 14.7423L35.6981 13.4215L36.6341 11.8067C36.82 11.4838 36.7103 11.0575 36.3805 10.8717L34.7657 9.93558L35.2551 8.14176C35.3516 7.77063 35.1319 7.39239 34.7676 7.29589L32.967 6.81338L32.9683 4.95044C32.9686 4.57238 32.6595 4.26279 32.2814 4.26251L30.4185 4.26115L29.9386 2.45975C29.8906 2.28783 29.7739 2.13655 29.6158 2.04708C29.4578 1.95076 29.2722 1.92995 29.1003 1.97797L27.2989 2.45783L26.3652 0.841858C26.2759 0.68373 26.1248 0.566686 25.953 0.518481C25.7743 0.470184 25.5887 0.497573 25.4305 0.586863L23.8144 1.52057L22.4955 0.199669C22.3719 0.0758686 22.1932 9.13807e-05 22.0144 8.28033e-08C21.8288 -9.12151e-05 21.6569 0.0753208 21.5263 0.199029L20.2055 1.51792L18.5976 0.581841C18.4396 0.492369 18.2471 0.464706 18.0752 0.512729C17.8964 0.560752 17.7452 0.67743 17.6556 0.835558L16.7264 2.45034L14.9257 1.96783C14.5614 1.86448 14.1832 2.08415 14.0798 2.44843L13.5973 4.24909L11.7344 4.24772C11.3563 4.24745 11.0467 4.55658 11.0465 4.93465L11.0451 6.79758L9.24368 7.27744C9.07177 7.32547 8.92049 7.44224 8.83102 7.60027C8.7347 7.75831 8.71388 7.94392 8.7619 8.12268L9.24177 9.91723L7.62579 10.8507C7.46767 10.94 7.35062 11.0911 7.30926 11.2698C7.26106 11.4416 7.28151 11.6272 7.37765 11.7855L8.3045 13.4016L6.99054 14.7205C6.8598 14.8441 6.78412 15.0228 6.78394 15.2016C6.78384 15.3872 6.85926 15.5591 6.98981 15.6897L8.30185 17.0105L7.37262 18.6184C7.2763 18.7764 7.25549 18.9689 7.30351 19.1408C7.3446 19.3195 7.46137 19.4708 7.6194 19.5603L9.23419 20.4964L8.75168 22.2902C8.70347 22.4689 8.72392 22.6545 8.82006 22.8127C8.90935 22.9708 9.06045 23.0879 9.23227 23.1361L11.0329 23.6186L11.0316 25.4815C11.0313 25.8596 11.3404 26.1692 11.7185 26.1694L13.5814 26.1708L14.0613 27.9722C14.1642 28.3366 14.5421 28.5569 14.9064 28.454L16.7078 27.9741L17.6347 29.5902C17.827 29.9203 18.2462 30.0306 18.5762 29.8383L20.1855 28.9115L21.5043 30.2323C21.6349 30.3561 21.8066 30.4319 21.9922 30.4319C22.171 30.432 22.3498 30.3566 22.4736 30.2329L23.7944 28.914L25.4092 29.8433C25.7321 30.036 26.1583 29.9263 26.3442 29.5965L27.2803 27.9817L29.081 28.4642C29.2528 28.5124 29.4384 28.492 29.5966 28.3958C29.7548 28.3065 29.8718 28.1554 29.92 27.9836L30.4025 26.1829L32.2654 26.1843C32.6435 26.1846 32.9531 25.8755 32.9534 25.4974L32.9547 23.6345L34.7561 23.1546C35.1205 23.0518 35.3408 22.6807 35.2449 22.3095L34.7581 20.5149L36.3742 19.5812C36.7043 19.3889 36.8146 18.9697 36.6292 18.6396L35.6955 17.0304L37.0163 15.7115C37.147 15.5811 37.2159 15.4093 37.216 15.2236ZM21.9944 24.7752C16.7233 24.7714 12.4381 20.4799 12.4419 15.2089C12.4458 9.93777 16.7372 5.65225 22.0083 5.65609C27.2794 5.65992 31.5645 9.95165 31.5607 15.2227C31.557 20.4939 27.2655 24.7791 21.9944 24.7752Z" fill="white"/>
<path d="M36.4969 39.8877L31.1849 28.5024C31.012 28.9656 30.6931 29.3557 30.2722 29.5932C29.9941 29.7631 29.6308 29.8646 29.2603 29.8643C29.0737 29.8642 28.8877 29.8382 28.7079 29.7874L27.9421 29.5824L27.5334 30.2863C27.1785 30.9151 26.4934 31.3137 25.753 31.3131C25.3845 31.3129 25.022 31.2133 24.7059 31.0247L24.0208 30.6309L23.4451 31.2058C23.2959 31.3551 23.1196 31.4712 22.9331 31.5675L28.5476 43.6009C28.6574 43.8347 28.8841 43.9861 29.1453 44.0001H29.1728C29.4203 44.0003 29.6472 43.8698 29.771 43.6499L31.774 40.1387L35.7537 40.8565C36.0081 40.9048 36.2624 40.8019 36.4207 40.6026C36.5789 40.3965 36.6067 40.1215 36.4969 39.8877Z" fill="white"/>
<path d="M20.5586 31.2301L19.9582 30.6292L19.2631 31.0298C18.9515 31.2108 18.5916 31.3079 18.2277 31.3076C17.4981 31.3071 16.8155 30.9146 16.4475 30.2833L16.0405 29.5744L15.261 29.7823C15.0992 29.8281 14.9111 29.8543 14.7225 29.8541C13.8607 29.8534 13.0944 29.3024 12.7962 28.5005L7.46727 39.8666C7.35707 40.1002 7.39131 40.3752 7.5424 40.5816C7.70035 40.7811 7.95461 40.8843 8.20906 40.8364L12.1966 40.1244L14.1945 43.6385C14.3111 43.8585 14.5448 43.9894 14.7923 43.9895H14.8198C15.0741 43.9759 15.3011 43.8249 15.4112 43.5913L21.0483 31.5674C20.8733 31.477 20.7057 31.3694 20.5586 31.2301Z" fill="white"/>
<path d="M22.0075 7.03076C17.4943 7.02748 13.8202 10.6966 13.8169 15.2097C13.8136 19.7225 17.4823 23.397 21.9955 23.4003C26.5088 23.4036 30.1828 19.7344 30.1861 15.2216C30.1893 10.7084 26.5206 7.03405 22.0075 7.03076Z" fill="white"/>
</g>
<defs>
<clipPath id="clip0_937_10042">
<rect width="44" height="44" fill="white"/>
</clipPath>
</defs>
</svg>
