<svg width="41" height="40" viewBox="0 0 41 40" fill="none" xmlns="http://www.w3.org/2000/svg">
<g clipPath="url(#clip0_937_10033)">
<path d="M25.6198 25.6434H26.5291C26.9508 25.6434 27.2927 25.9853 27.2927 26.407C27.2927 26.8287 26.9508 27.1706 26.5291 27.1706H25.6198C25.1981 27.1706 24.8562 26.8287 24.8562 26.407C24.8562 25.9853 25.1981 25.6434 25.6198 25.6434ZM12.1262 10.3415C12.1262 9.37921 12.2928 8.43043 12.6109 7.53595C12.6223 7.49357 12.6373 7.45186 12.6563 7.4113C12.9559 6.60932 13.3781 5.85315 13.9121 5.17297V0.763608C13.9121 0.341906 14.254 0 14.6757 0H26.3365C26.7582 0 27.1001 0.341906 27.1001 0.763608V5.18815C28.2461 6.65532 28.8739 8.47328 28.8739 10.3415C28.8739 13.4098 27.195 16.1627 24.6411 17.6205L24.3781 18.9664C24.3069 19.3308 23.9874 19.5837 23.6295 19.5837C23.5809 19.5837 23.5318 19.579 23.4822 19.5694C23.0683 19.4885 22.7983 19.0874 22.8792 18.6735L22.9419 18.3531C22.6775 18.4336 22.4074 18.5013 22.1319 18.5558C21.7181 18.6374 21.3165 18.3684 21.2347 17.9547C21.1529 17.541 21.4221 17.1394 21.8358 17.0576C25.029 16.4266 27.3466 13.602 27.3466 10.3415C27.3466 9.03396 26.9705 7.75645 26.2745 6.66334C24.8089 8.16822 22.6863 9.29779 20.4127 9.75338C18.0133 10.2342 15.6638 9.93034 13.8022 8.92381C13.7039 9.38723 13.6534 9.86238 13.6534 10.3415C13.6534 13.6021 15.9711 16.4266 19.1643 17.0576C19.578 17.1393 19.8471 17.5409 19.7653 17.9547C19.6835 18.3685 19.2813 18.6374 18.8682 18.5558C18.5925 18.5013 18.3224 18.4335 18.0581 18.3531L18.1207 18.6736C18.2016 19.0874 17.9316 19.4885 17.5177 19.5694C17.104 19.6504 16.7027 19.3803 16.6219 18.9663L16.359 17.6205C13.8052 16.1627 12.1262 13.4099 12.1262 10.3415ZM15.4393 4.67949H25.5729V1.52722H15.4393V4.67949ZM14.2948 7.44948C17.4113 9.33416 21.8454 8.40399 24.5184 6.2067H15.0434C14.7492 6.59481 14.4986 7.01164 14.2948 7.44948ZM30.206 23.2344V33.1642C30.206 33.4585 30.0369 33.7266 29.7713 33.8533L23.7422 36.731L23.7749 37.2083C23.7919 37.457 23.6864 37.6984 23.4924 37.8548L21.0421 39.8308C20.9026 39.9433 20.7327 39.9999 20.5627 39.9999C20.5418 39.9999 20.5209 39.999 20.5001 39.9973C20.3096 40.0131 20.1149 39.9571 19.9582 39.8307L17.5076 37.8547C17.3136 37.6983 17.2081 37.4569 17.2251 37.2082L17.2578 36.7307L11.2289 33.8531C10.9632 33.7264 10.7942 33.4583 10.7942 33.164V23.2342C10.7942 22.9446 10.958 22.68 11.2171 22.5508L15.0587 20.6355C15.1644 20.5827 15.2812 20.5553 15.3993 20.5553H17.4562L18.5397 19.6319C18.6778 19.5142 18.8534 19.4495 19.035 19.4495H21.9652C22.1468 19.4495 22.3224 19.5142 22.4605 19.6319L23.5441 20.5554L25.601 20.5553C25.7193 20.5553 25.8359 20.5828 25.9418 20.6355L29.7831 22.5508C30.0423 22.6802 30.206 22.9448 30.206 23.2344ZM18.1225 24.0934L17.242 23.3429C17.0717 23.1978 16.9737 22.9854 16.9737 22.7617V22.0826H15.5791L12.3213 23.7069V32.6824L17.3698 35.0921L18.1225 24.0934ZM22.2241 36.9157L22.1841 36.331C22.1833 36.322 22.1827 36.3131 22.1823 36.3042L21.4047 24.9406H19.5953L18.8181 36.2965C18.8175 36.3105 18.8166 36.3245 18.8152 36.3386L18.7757 36.9156L20.4999 38.3058L22.2241 36.9157ZM22.4993 21.6717L21.6839 20.9768H19.3162L18.5008 21.6717V22.4092L19.4022 23.1774C19.4044 23.1792 19.4065 23.1811 19.4086 23.183L19.6792 23.4135H21.3206L22.4992 22.4092L22.4993 21.6717ZM28.6788 23.7069L25.4212 22.0826H24.0264V22.7617C24.0264 22.9855 23.9283 23.1978 23.7581 23.3429L22.8775 24.0933L23.6301 35.0921L28.6788 32.6823V23.7069Z" fill="white"/>
</g>
<defs>
<clipPath id="clip0_937_10033">
<rect width="40" height="40" fill="white" transform="translate(0.5)"/>
</clipPath>
</defs>
</svg>
