<svg width="20" height="21" viewBox="0 0 20 21" fill="none" xmlns="http://www.w3.org/2000/svg">
<g clipPath="url(#clip0_953_3451)">
<path d="M4.16667 3.8335H7.5L9.16667 8.00016L7.08333 9.25016C7.9758 11.0598 9.44039 12.5244 11.25 13.4168L12.5 11.3335L16.6667 13.0002V16.3335C16.6667 16.7755 16.4911 17.1994 16.1785 17.512C15.866 17.8246 15.442 18.0002 15 18.0002C11.7494 17.8026 8.68346 16.4222 6.38069 14.1195C4.07792 11.8167 2.69754 8.75078 2.5 5.50016C2.5 5.05814 2.67559 4.63421 2.98816 4.32165C3.30072 4.00909 3.72464 3.8335 4.16667 3.8335Z" stroke="white" strokeLinecap="round" strokeLinejoin="round"/>
<path d="M12.5 6.3335C12.942 6.3335 13.366 6.50909 13.6785 6.82165C13.9911 7.13421 14.1667 7.55814 14.1667 8.00016" stroke="white" strokeLinecap="round" strokeLinejoin="round"/>
<path d="M12.5 3C13.8261 3 15.0979 3.52678 16.0355 4.46447C16.9732 5.40215 17.5 6.67392 17.5 8" stroke="white" strokeLinecap="round" strokeLinejoin="round"/>
</g>
<defs>
<clipPath id="clip0_953_3451">
<rect width="20" height="20" fill="white" transform="translate(0 0.5)"/>
</clipPath>
</defs>
</svg>
