<svg width="51" height="50" viewBox="0 0 51 50" fill="none" xmlns="http://www.w3.org/2000/svg">
<path d="M40.0172 23.7725C40.0135 23.7243 40.0123 23.676 40.0073 23.629C39.9665 21.7982 39.6473 20.3187 38.2074 19.7089C36.6859 19.0644 35.3449 19.0557 34.3615 19.4379C34.2972 19.4639 34.1289 19.6853 34.0646 19.7262C33.999 19.767 33.6539 19.6519 33.524 19.6829C31.3654 19.9909 30.6528 22.0246 30.8099 23.6105C31.3258 24.511 31.4891 25.6466 31.5373 26.8206C32.3414 28.2234 33.7219 29.3008 35.3697 29.3008C37.5704 29.3008 39.3133 27.4428 39.8564 25.4203C40.0642 25.3968 40.2362 25.2397 40.2523 25.0244L40.3203 24.2253C40.3376 24.0162 40.2065 23.8368 40.0172 23.7725ZM35.366 28.6823C33.0948 28.6823 31.3963 26.2763 31.3963 24.1226C31.3963 24.0212 31.405 23.9222 31.4124 23.8232C32.3587 23.4769 34.1772 22.7532 34.3763 22.3722C35.2027 23.2307 38.1221 23.7131 39.4049 23.8752C39.4111 23.9568 39.4185 24.0397 39.4185 24.1226C39.416 26.2318 37.6471 28.6823 35.366 28.6823Z" fill="white"/>
<path d="M10.7686 24.2067L10.8366 25.0059C10.8564 25.231 11.042 25.393 11.2622 25.4054C11.7929 27.4329 13.5062 29.2996 15.6772 29.2996C17.3806 29.2996 18.8007 28.1838 19.6122 26.7451C19.5949 25.7394 19.8596 24.7065 20.4336 23.8517C20.3977 23.8257 20.3717 23.7874 20.3284 23.7725C20.3247 23.7243 20.3235 23.676 20.3185 23.629C20.2777 21.7982 19.9586 20.3187 18.5186 19.7089C16.9971 19.0644 15.6561 19.0557 14.6727 19.4379C14.6084 19.4639 14.4414 19.6853 14.3758 19.7262C14.3102 19.767 13.9651 19.6519 13.8352 19.6829C11.6766 19.9909 10.9641 22.0258 11.1212 23.6117C11.1162 23.6562 11.1137 23.7008 11.11 23.7453C10.8985 23.796 10.7488 23.9878 10.7686 24.2067ZM11.7211 23.8245C12.6675 23.4781 14.4859 22.7544 14.6838 22.3734C15.5102 23.2319 18.4308 23.7144 19.7136 23.8764C19.7198 23.9581 19.7272 24.041 19.7272 24.1238C19.7272 26.2318 17.9583 28.6836 15.6784 28.6836C13.406 28.6836 11.7088 26.2775 11.7088 24.1238C11.7063 24.0212 11.7137 23.9222 11.7211 23.8245Z" fill="white"/>
<path d="M22.3723 9.78758C22.6952 11.0209 23.7368 12.1565 25.0579 12.1565C26.3977 12.1565 27.4553 11.0259 27.7881 9.79624C27.9155 9.7814 28.0194 9.68615 28.0293 9.55502L28.0701 9.06886C28.0825 8.94145 27.9996 8.83259 27.887 8.79301C27.8846 8.76455 27.8846 8.73486 27.8821 8.70641C27.8561 7.59308 27.6619 6.69375 26.7861 6.3214C25.8595 5.92926 25.0443 5.92308 24.4456 6.15688C24.406 6.17296 24.3046 6.3078 24.265 6.33254C24.2254 6.35728 24.0151 6.288 23.9359 6.30656C22.6234 6.49335 22.1905 7.73039 22.2857 8.69652C22.282 8.72249 22.2808 8.75095 22.2783 8.77816C22.1509 8.80909 22.0606 8.92537 22.0717 9.05897L22.1138 9.54512C22.1249 9.68244 22.2387 9.7814 22.3723 9.78758ZM22.6519 8.82517C23.2271 8.61487 24.333 8.17449 24.4543 7.94192C24.9565 8.46395 26.7329 8.75837 27.5135 8.85609C27.5172 8.90681 27.5221 8.9563 27.5221 9.00701C27.5221 10.2886 26.4447 11.7792 25.0579 11.7792C23.6749 11.7792 22.6432 10.3158 22.6432 9.00701C22.6432 8.94516 22.647 8.88578 22.6519 8.82517Z" fill="white"/>
<path d="M16.37 9.69887C14.5466 9.95865 13.9454 11.6769 14.0778 13.0178C14.074 13.055 14.0716 13.0933 14.0679 13.1304C13.891 13.1737 13.7648 13.3345 13.7821 13.5201L13.8402 14.1955C13.8563 14.386 14.0134 14.5233 14.199 14.532C14.648 16.244 16.0941 17.8213 17.9287 17.8213C19.7879 17.8213 21.2588 16.2515 21.7189 14.5444C21.8934 14.5246 22.0381 14.391 22.0542 14.2091L22.1111 13.5349C22.1259 13.358 22.0146 13.2071 21.8563 13.1514C21.8525 13.1119 21.8525 13.071 21.8476 13.0302C21.813 11.4839 21.5433 10.2345 20.3273 9.71866C19.042 9.17437 17.9089 9.16694 17.0788 9.48981C17.0244 9.51208 16.8834 9.69887 16.8277 9.73351C16.772 9.76815 16.4813 9.67166 16.37 9.69887ZM17.0887 11.9713C17.7864 12.6962 20.2531 13.1044 21.3367 13.2405C21.3416 13.3098 21.3478 13.3791 21.3478 13.4496C21.3478 15.2297 19.8535 17.2992 17.9274 17.2992C16.0075 17.2992 14.575 15.2668 14.575 13.4496C14.575 13.3642 14.5812 13.2801 14.5874 13.1972C15.3865 12.9053 16.9217 12.2917 17.0887 11.9713Z" fill="white"/>
<path d="M28.4871 14.5315C28.9361 16.2435 30.3822 17.8207 32.2167 17.8207C34.0772 17.8207 35.5468 16.2509 36.007 14.5438C36.1283 14.5302 36.2149 14.4511 36.2742 14.3509L36.3658 14.341C36.3868 14.3385 36.4239 14.3249 36.4276 14.2878L36.4858 13.6148C36.4882 13.569 36.4425 13.5517 36.4375 13.5505L36.3992 13.5369C36.414 13.36 36.3027 13.2091 36.1431 13.1534C36.1406 13.1138 36.1406 13.073 36.1357 13.0322C36.101 11.4859 35.8314 10.2365 34.6154 9.72062C33.3301 9.17632 32.1969 9.1689 31.3669 9.49176C31.3125 9.51403 31.1714 9.70082 31.1158 9.73546C31.0613 9.76886 30.7706 9.67361 30.6593 9.69959C28.8359 9.95937 28.2347 11.6776 28.3671 13.0186C28.3634 13.0557 28.3609 13.094 28.3559 13.1311C28.179 13.1744 28.0541 13.3352 28.0714 13.5208L28.1296 14.1962C28.1456 14.3843 28.3015 14.524 28.4871 14.5315ZM28.8743 13.1955C29.6734 12.9035 31.2098 12.2912 31.3756 11.9696C32.072 12.6945 34.5399 13.1027 35.6248 13.2388C35.6297 13.308 35.6359 13.3773 35.6359 13.4478C35.6359 15.2279 34.1416 17.2975 32.2155 17.2975C30.2944 17.2975 28.8619 15.265 28.8619 13.4478C28.8656 13.3637 28.8693 13.2783 28.8743 13.1955Z" fill="white"/>
<path d="M21.9687 14.7914C21.7547 15.4854 21.3625 16.1657 20.8467 16.736L25.0464 16.7385V16.7311L29.3352 16.7286C28.8318 16.1608 28.4483 15.4816 28.238 14.7901C28.0067 14.6961 27.8421 14.4821 27.8199 14.2223L27.7617 13.5469C27.7395 13.2983 27.8557 13.0669 28.0537 12.9309C28.0314 12.6934 28.0413 12.4484 28.0673 12.2035C27.8174 11.9462 27.5255 11.7643 27.1729 11.7136C27.1036 11.7025 27.0356 11.7186 26.991 11.7371L25.8851 13.2327L25.0452 12.5635L25.0402 12.5672V12.5709L25.039 12.5697L24.2015 13.2401L23.0956 11.7446C23.0511 11.7272 22.983 11.7112 22.915 11.7223C22.5983 11.7668 22.3324 11.9214 22.0986 12.1367C22.1283 12.4126 22.148 12.6909 22.1555 12.9667C22.3361 13.1053 22.4387 13.328 22.419 13.5618L22.3621 14.2347C22.3398 14.4846 22.1876 14.6912 21.9687 14.7914Z" fill="white"/>
<path d="M39.7701 25.9653C39.446 26.7929 38.9116 27.5661 38.2288 28.1376C38.9203 27.5586 39.4547 26.7818 39.7701 25.9653Z" fill="white"/>
<path d="M14.1843 19.4022C14.2078 19.4059 14.2301 19.4108 14.2511 19.4146C14.2598 19.4047 14.2685 19.3948 14.2783 19.3836C14.3884 19.2624 14.4602 19.1869 14.5579 19.1486C15.1146 18.9321 15.7442 18.8492 16.4135 18.8863L15.2037 17.2497C15.1418 17.225 15.0478 17.204 14.9525 17.2188C13.8182 17.3784 13.1032 18.4781 12.6492 19.756C12.9844 19.5803 13.353 19.4381 13.7897 19.375L13.8899 19.3663C13.9716 19.3688 14.0817 19.3849 14.1843 19.4022Z" fill="white"/>
<path d="M19.4949 27.9671L19.579 28.9505C19.6025 29.2288 19.8314 29.4305 20.1023 29.4428C20.7554 31.9367 22.8634 34.2364 25.5354 34.2364C28.2457 34.2364 30.3883 31.9478 31.0575 29.4602C31.3123 29.4317 31.5226 29.2375 31.5474 28.9715L31.6302 27.9893C31.6538 27.7333 31.4917 27.5118 31.2579 27.4327C31.253 27.3745 31.2517 27.3139 31.2443 27.2558C31.196 25.0031 30.8039 23.1822 29.0288 22.4313C27.1571 21.6384 25.5069 21.6272 24.2971 22.0973C24.2179 22.1282 24.0126 22.4016 23.9322 22.4523C23.8517 22.5018 23.4274 22.362 23.2666 22.4004C20.6107 22.7789 19.7337 25.2827 19.9266 27.2347C19.9217 27.2892 19.9167 27.3436 19.913 27.3993C19.6545 27.4623 19.4702 27.6961 19.4949 27.9671ZM20.6676 27.4957C21.8304 27.0702 24.0695 26.1795 24.3119 25.7107C25.33 26.7671 28.9236 27.3609 30.5008 27.5588C30.5083 27.6603 30.5182 27.7617 30.5182 27.8631C30.5182 30.4585 28.341 33.4731 25.5354 33.4731C22.7384 33.4731 20.6503 30.5116 20.6503 27.8631C20.6491 27.7394 20.659 27.6182 20.6676 27.4957Z" fill="white"/>
<path d="M19.0793 19.3177L17.914 18.3887L17.9066 18.3949V18.401L17.9054 18.3998L17.1582 18.9948C17.6431 19.0851 18.1367 19.2125 18.6377 19.4253C20.3003 20.1292 20.5799 21.8969 20.6231 23.5508C21.212 22.816 22.0556 22.2606 23.2209 22.0936L23.3335 22.0837C23.4312 22.0837 23.5624 22.1047 23.6848 22.127C23.7071 22.1307 23.7269 22.1344 23.7479 22.1381C23.4448 20.1774 22.6977 17.4671 20.8644 17.2085C20.7679 17.1937 20.6739 17.2147 20.612 17.2407L19.0793 19.3177Z" fill="white"/>
<path d="M35.1544 17.2085C35.0579 17.1937 34.9652 17.2147 34.9033 17.2407L33.3682 19.3189L32.2029 18.3899L32.1954 18.3961V18.4023L32.1942 18.401L31.0289 19.3301L29.4925 17.2518C29.4319 17.2271 29.3379 17.2061 29.2426 17.2209C27.6085 17.451 26.8354 19.6319 26.4729 21.4924C27.3277 21.5444 28.2357 21.7608 29.1523 22.148C29.7251 22.3905 30.1568 22.7344 30.492 23.1476C30.4809 21.4899 31.3629 19.6814 33.482 19.3783L33.5822 19.3696C33.6626 19.3696 33.7739 19.387 33.8778 19.4055C33.9013 19.4092 33.9236 19.4142 33.9446 19.4179C33.9533 19.408 33.9632 19.3981 33.9718 19.387C34.0807 19.2657 34.1524 19.1903 34.2514 19.1519C35.0963 18.8229 36.1107 18.7932 37.1758 19.0493C36.7193 18.0868 36.0748 17.3384 35.1544 17.2085Z" fill="white"/>
<path d="M25.5121 43.4935L34.3136 43.486C34.3136 43.486 34.0452 33.9373 29.817 33.3423C29.6772 33.3188 29.5386 33.3522 29.4508 33.3881L27.213 36.4139L25.5146 35.0606L25.5047 35.068V35.0779L25.5022 35.0754L23.8037 36.43L21.5659 33.4017C21.4769 33.3658 21.3395 33.3349 21.1998 33.3559C16.9716 33.9497 16.7031 43.5009 16.7031 43.5009L25.5108 43.5058L25.5121 43.4935Z" fill="white"/>
<path d="M35.3477 36.8242L42.5002 36.8192C42.5002 36.8192 42.2825 29.0593 38.846 28.5731C38.7322 28.5558 38.6209 28.5805 38.5491 28.6102L36.7294 31.0707L35.3501 29.9685L35.3415 29.9759V29.9846L35.3402 29.9821L33.9609 31.0831L32.1425 28.6238C32.0806 28.5979 31.9842 28.588 31.8889 28.5929L31.8543 28.9987C31.8283 29.3302 31.613 29.6023 31.3087 29.7161C30.8733 31.1734 29.9072 32.6083 28.591 33.5336C28.5452 33.76 28.5068 33.9802 28.4697 34.1954L29.2552 33.1341L29.3344 33.1019C29.4235 33.066 29.6363 33.0005 29.8651 33.0363C31.6266 33.285 32.7313 34.9253 33.4315 36.8341L35.3489 36.8365L35.3477 36.8242Z" fill="white"/>
<path d="M8.5 36.8319L15.6575 36.8343V36.822H17.5959C18.2973 34.9231 19.4008 33.2952 21.1561 33.0502C21.364 33.0193 21.5916 33.0775 21.6794 33.1133L21.7611 33.1455L22.5305 34.1858C22.4897 33.9372 22.4439 33.6836 22.3895 33.4226C21.166 32.4948 20.2655 31.1155 19.8535 29.709C19.5319 29.6051 19.2993 29.323 19.2697 28.9767L19.2375 28.5957C19.209 28.5907 19.1855 28.5771 19.1558 28.5722C19.042 28.5536 18.9307 28.5796 18.8577 28.608L17.0393 31.0685L15.66 29.9675L15.6513 29.975V29.9824L15.6501 29.9799L14.2708 31.0809L12.4523 28.6204C12.3794 28.5932 12.268 28.5672 12.1542 28.5845C8.71772 29.0695 8.5 36.8319 8.5 36.8319Z" fill="white"/>
</svg>
