<svg width="173" height="40" viewBox="0 0 173 40" fill="none" xmlns="http://www.w3.org/2000/svg">
<path d="M7.51317 17.3164V34.0481L0 29.7709V21.939L7.51317 17.3164Z" fill="white"/>
<path d="M7.51317 6.05273V14.2675L0 18.8958V10.6753L7.51317 6.05273Z" fill="white"/>
<path d="M35.0008 10.0453V29.5229L27.4876 34.1426L17.9814 40L17.5022 39.7237L10.892 35.9675L9.88965 35.3947V15.8509L17.5022 11.1679V31.8947L27.4876 25.7523V14.0376L19.878 9.70281L17.5022 8.35576V8.12262L17.3064 8.24351L9.88965 12.8085V4.59092L10.3631 4.29733L17.3444 0L17.5022 0.0921061L24.2819 3.94905L26.8535 5.40836L27.4876 5.77391L35.0008 10.0453Z" fill="white"/>
<path d="M58.4533 7.30664V20.4466H55.001V9.65894L58.4533 7.30664Z" fill="white"/>
<path d="M55.001 5.81927V8.20446L58.4467 5.89165V3.2334L55.001 5.81927Z" fill="white"/>
<path d="M76.5706 20.4496H73.1216L65.3053 8.64541V20.4496H61.853V3.22363H65.3053L73.1216 15.0542V3.22363H76.5739V20.4496H76.5706Z" fill="white"/>
<path d="M94.0626 12.8793L92.3644 12.2378L89.1161 20.456H84.9299L78.6309 3.25635H82.3234L87.0494 16.9128L89.1655 11.0831L87.7372 10.5402L93.2991 5.25004L94.0626 12.8793Z" fill="white"/>
<path d="M100.954 6.03321V10.3463H106.746V13.0802H100.954V17.64H107.486V20.4496H97.5015V3.22363H107.486V6.03321H100.954Z" fill="white"/>
<path d="M113.315 20.0056C112.354 19.5943 111.594 19.0054 111.034 18.2323C110.475 17.4592 110.188 16.5479 110.172 15.4984H113.871C113.92 16.2057 114.17 16.765 114.625 17.173C115.076 17.5842 115.698 17.7882 116.484 17.7882C117.29 17.7882 117.922 17.5974 118.383 17.2091C118.844 16.8242 119.074 16.3176 119.074 15.6925C119.074 15.1826 118.916 14.7647 118.607 14.4357C118.294 14.1068 117.906 13.8501 117.435 13.6593C116.965 13.4685 116.32 13.2612 115.5 13.031C114.384 12.702 113.473 12.3763 112.775 12.0571C112.077 11.7347 111.475 11.2511 110.975 10.603C110.475 9.95488 110.221 9.08635 110.221 8.00397C110.221 6.98409 110.475 6.0991 110.985 5.34242C111.495 4.58903 112.209 4.00671 113.131 3.60534C114.052 3.20397 115.102 3 116.287 3C118.061 3 119.505 3.43099 120.614 4.29294C121.723 5.1549 122.336 6.359 122.451 7.90526H118.653C118.62 7.31308 118.37 6.82288 117.903 6.43796C117.435 6.05304 116.813 5.85894 116.04 5.85894C115.365 5.85894 114.829 6.03001 114.424 6.37546C114.022 6.7209 113.822 7.22097 113.822 7.87895C113.822 8.33954 113.973 8.72116 114.276 9.02383C114.579 9.32979 114.957 9.57654 115.411 9.76406C115.862 9.95488 116.501 10.172 117.323 10.4188C118.439 10.7478 119.354 11.0767 120.058 11.4024C120.766 11.7314 121.375 12.2249 121.881 12.8796C122.392 13.5376 122.645 14.3996 122.645 15.4688C122.645 16.3899 122.408 17.242 121.931 18.0316C121.454 18.8212 120.756 19.4496 119.834 19.9167C118.913 20.3839 117.82 20.6175 116.557 20.6175C115.359 20.6208 114.279 20.4168 113.315 20.0056Z" fill="white"/>
<path d="M137.34 3.24658V6.02986H132.755V20.4463H129.303V6.02986H124.715V3.24658H137.34Z" fill="white"/>
<path d="M143.405 19.4891C142.059 18.7324 140.99 17.6862 140.2 16.3472C139.41 15.0082 139.015 13.4915 139.015 11.8005C139.015 10.126 139.41 8.61918 140.2 7.27689C140.99 5.93789 142.056 4.89171 143.405 4.13503C144.751 3.38163 146.232 3 147.842 3C149.468 3 150.952 3.37834 152.291 4.13503C153.631 4.89171 154.69 5.93789 155.47 7.27689C156.25 8.61589 156.642 10.1227 156.642 11.8005C156.642 13.4915 156.25 15.0082 155.47 16.3472C154.69 17.6862 153.624 18.7324 152.278 19.4891C150.932 20.2457 149.451 20.6241 147.842 20.6241C146.232 20.6208 144.751 20.2424 143.405 19.4891ZM150.577 16.8374C151.366 16.3702 151.982 15.6991 152.426 14.8305C152.87 13.9587 153.091 12.9487 153.091 11.8005C153.091 10.6523 152.87 9.64564 152.426 8.78368C151.982 7.92172 151.366 7.26045 150.577 6.79986C149.787 6.33927 148.875 6.10897 147.842 6.10897C146.805 6.10897 145.89 6.33927 145.094 6.79986C144.297 7.26045 143.675 7.92172 143.231 8.78368C142.787 9.64564 142.566 10.6523 142.566 11.8005C142.566 12.952 142.79 13.962 143.231 14.8305C143.675 15.7024 144.294 16.3702 145.094 16.8374C145.89 17.3046 146.808 17.5381 147.842 17.5381C148.878 17.5414 149.79 17.3078 150.577 16.8374Z" fill="white"/>
<path d="M168.082 20.4497L164.287 13.7448H162.658V20.4497H159.206V3.25H165.663C166.995 3.25 168.128 3.48359 169.066 3.95075C170.003 4.41792 170.704 5.04958 171.172 5.84903C171.639 6.64519 171.873 7.53676 171.873 8.52373C171.873 9.65875 171.544 10.6819 170.885 11.5932C170.227 12.5045 169.25 13.1329 167.953 13.4783L172.07 20.453H168.082V20.4497ZM162.658 11.159H165.541C166.479 11.159 167.176 10.9352 167.637 10.4812C168.098 10.0305 168.328 9.39885 168.328 8.59611C168.328 7.80653 168.098 7.19461 167.637 6.76034C167.176 6.32608 166.479 6.10564 165.541 6.10564H162.658V11.159Z" fill="white"/>
<path d="M61.1026 27.354C61.922 27.7718 62.5506 28.3673 62.9883 29.1404C63.4261 29.9168 63.6433 30.8281 63.6433 31.8776C63.6433 32.9271 63.4261 33.8384 62.9883 34.6082C62.5506 35.3781 61.922 35.967 61.1026 36.3749C60.2831 36.7829 59.3155 36.9835 58.1966 36.9835H55.001V26.7256H58.1966C59.3155 26.7289 60.2831 26.9361 61.1026 27.354ZM61.2276 34.8319C61.9253 34.1312 62.2742 33.1475 62.2742 31.8809C62.2742 30.6077 61.922 29.6108 61.2211 28.8936C60.5201 28.1764 59.513 27.8178 58.1966 27.8178H56.3404V35.8814H58.1966C59.5196 35.8814 60.5299 35.5327 61.2276 34.8319Z" fill="white"/>
<path d="M66.7501 26.729V36.987H65.4106V26.729H66.7501Z" fill="white"/>
<path d="M81.9251 26.729L78.95 36.987H77.4493L75.0633 28.7293L72.5917 36.987L71.1042 37.0001L68.2344 26.729H69.6627L71.9006 35.4275L74.3755 26.729H75.8762L78.2326 35.3979L80.4837 26.729H81.9251Z" fill="white"/>
<path d="M89.4648 34.7035H84.989L84.1663 36.9834H82.7544L86.4634 26.7847H88.0102L91.706 36.9834H90.2909L89.4648 34.7035ZM89.0831 33.6145L87.2269 28.4329L85.3708 33.6145H89.0831Z" fill="white"/>
<path d="M101.389 36.9869H100.049L94.6617 28.8214V36.9869H93.3223V26.7158H94.6617L100.049 34.8682V26.7158H101.389V36.9869Z" fill="white"/>
</svg>
