<svg width="35" height="40" viewBox="0 0 35 40" fill="none" xmlns="http://www.w3.org/2000/svg">
<path d="M7.51317 17.3164V34.0481L0 29.7709V21.939L7.51317 17.3164Z" fill="white"/>
<path d="M7.51317 6.05273V14.2675L0 18.8958V10.6753L7.51317 6.05273Z" fill="white"/>
<path d="M35.0008 10.0453V29.5229L27.4876 34.1426L17.9814 40L17.5022 39.7237L10.892 35.9675L9.88965 35.3947V15.8509L17.5022 11.1679V31.8947L27.4876 25.7523V14.0376L19.878 9.70281L17.5022 8.35576V8.12262L17.3064 8.24351L9.88965 12.8085V4.59092L10.3631 4.29733L17.3444 0L17.5022 0.0921061L24.2819 3.94905L26.8535 5.40836L27.4876 5.77391L35.0008 10.0453Z" fill="white"/>
</svg>
