<svg width="21" height="20" viewBox="0 0 21 20" fill="none" xmlns="http://www.w3.org/2000/svg">
<g clipPath="url(#clip0_937_9895)">
<path d="M18.8327 6.2793V14.1668C18.8327 14.8045 18.5891 15.4181 18.1516 15.882C17.7141 16.346 17.1159 16.6252 16.4793 16.6626L16.3327 16.6668H4.66602C4.02834 16.6668 3.41475 16.4232 2.9508 15.9857C2.48684 15.5483 2.20759 14.95 2.17018 14.3135L2.16602 14.1668V6.2793L10.0368 11.5268L10.1335 11.5818C10.2474 11.6375 10.3726 11.6664 10.4993 11.6664C10.6261 11.6664 10.7513 11.6375 10.8652 11.5818L10.9618 11.5268L18.8327 6.2793Z" fill="black"/>
<path d="M16.3329 3.33301C17.2329 3.33301 18.0221 3.80801 18.4621 4.52217L10.4996 9.83051L2.53711 4.52217C2.74605 4.18281 3.03312 3.89834 3.37437 3.69249C3.71561 3.48664 4.10114 3.36539 4.49878 3.33884L4.66628 3.33301H16.3329Z" fill="black"/>
</g>
<defs>
<clipPath id="clip0_937_9895">
<rect width="20" height="20" fill="white" transform="translate(0.5)"/>
</clipPath>
</defs>
</svg>
