<svg width="26" height="27" viewBox="0 0 26 27" fill="none" xmlns="http://www.w3.org/2000/svg">
<rect y="0.713989" width="26" height="26" rx="13" fill="#BD081C"/>
<path d="M12.9968 5.91399C8.68451 5.91399 5.20001 9.40489 5.20001 13.7108C5.20001 17.0156 7.25349 19.8391 10.154 20.9749C10.0834 20.3589 10.0257 19.4092 10.1797 18.7354C10.3209 18.1257 11.0909 14.8594 11.0909 14.8594C11.0909 14.8594 10.8599 14.391 10.8599 13.7044C10.8599 12.6199 11.4888 11.8113 12.2717 11.8113C12.939 11.8113 13.2599 12.3118 13.2599 12.9086C13.2599 13.576 12.8364 14.5771 12.6118 15.5076C12.4257 16.284 13.0032 16.9193 13.7669 16.9193C15.153 16.9193 16.2182 15.4562 16.2182 13.3514C16.2182 11.484 14.877 10.1814 12.9583 10.1814C10.738 10.1814 9.4353 11.8434 9.4353 13.5632C9.4353 14.2306 9.69199 14.9493 10.0128 15.3407C10.077 15.4177 10.0834 15.4883 10.0642 15.5653C10.0064 15.8092 9.87167 16.3418 9.846 16.4509C9.81391 16.5921 9.73049 16.6242 9.58289 16.5536C8.62033 16.0915 8.01712 14.6669 8.01712 13.5247C8.01712 11.0669 9.80108 8.8081 13.1701 8.8081C15.8717 8.8081 17.9765 10.7332 17.9765 13.3129C17.9765 16.0017 16.2824 18.1643 13.9337 18.1643C13.1444 18.1643 12.4 17.7536 12.1497 17.2659C12.1497 17.2659 11.7583 18.7546 11.662 19.1204C11.4888 19.8006 11.0139 20.6477 10.6931 21.1675C11.4246 21.3921 12.1947 21.514 13.0032 21.514C17.3091 21.514 20.8 18.0231 20.8 13.7172C20.7936 9.40489 17.3027 5.91399 12.9968 5.91399Z" fill="white"/>
</svg>
