<svg width="26" height="27" viewBox="0 0 26 27" fill="none" xmlns="http://www.w3.org/2000/svg">
<g clipPath="url(#clip0_1010_316)">
<path d="M13 26.714C20.1797 26.714 26 20.8937 26 13.714C26 6.53429 20.1797 0.713989 13 0.713989C5.8203 0.713989 0 6.53429 0 13.714C0 20.8937 5.8203 26.714 13 26.714Z" fill="#FF4500"/>
<path d="M21.6667 13.714C21.6667 12.6649 20.8152 11.8134 19.7661 11.8134C19.2491 11.8134 18.793 12.0111 18.4585 12.3456C17.1661 11.4181 15.372 10.8099 13.3953 10.7339L14.262 6.67423L17.0749 7.26722C17.1053 7.98184 17.6983 8.55961 18.4281 8.55961C19.1731 8.55961 19.7813 7.95143 19.7813 7.2064C19.7813 6.46137 19.1731 5.85318 18.4281 5.85318C17.8959 5.85318 17.4398 6.15727 17.2269 6.61341L14.0796 5.94441C13.9883 5.9292 13.8971 5.94441 13.8211 5.99002C13.7451 6.03564 13.6994 6.11166 13.669 6.20289L12.7111 10.7339C10.6889 10.7947 8.87956 11.3877 7.57196 12.3456C7.23745 12.0263 6.76611 11.8134 6.26435 11.8134C5.21523 11.8134 4.36377 12.6649 4.36377 13.714C4.36377 14.4894 4.81991 15.1432 5.48892 15.4473C5.45851 15.6298 5.4433 15.8275 5.4433 16.0251C5.4433 18.9444 8.83395 21.3011 13.0304 21.3011C17.2269 21.3011 20.6176 18.9444 20.6176 16.0251C20.6176 15.8275 20.6024 15.645 20.572 15.4625C21.1953 15.1584 21.6667 14.4894 21.6667 13.714ZM8.66669 15.0672C8.66669 14.3222 9.27488 13.714 10.0199 13.714C10.7649 13.714 11.3731 14.3222 11.3731 15.0672C11.3731 15.8122 10.7649 16.4204 10.0199 16.4204C9.27488 16.4204 8.66669 15.8122 8.66669 15.0672ZM16.2234 18.6403C15.2959 19.5678 13.5322 19.6286 13.0152 19.6286C12.4983 19.6286 10.7193 19.5526 9.80704 18.6403C9.6702 18.5035 9.6702 18.2754 9.80704 18.1386C9.94389 18.0017 10.172 18.0017 10.3088 18.1386C10.8866 18.7163 12.1334 18.9292 13.0304 18.9292C13.9275 18.9292 15.1591 18.7163 15.7521 18.1386C15.8889 18.0017 16.117 18.0017 16.2538 18.1386C16.3603 18.2906 16.3603 18.5035 16.2234 18.6403ZM15.9801 16.4204C15.2351 16.4204 14.6269 15.8122 14.6269 15.0672C14.6269 14.3222 15.2351 13.714 15.9801 13.714C16.7252 13.714 17.3334 14.3222 17.3334 15.0672C17.3334 15.8122 16.7252 16.4204 15.9801 16.4204Z" fill="white"/>
</g>
<defs>
<clipPath id="clip0_1010_316">
<rect width="26" height="26" fill="white" transform="translate(0 0.713989)"/>
</clipPath>
</defs>
</svg>
