<svg xmlns="http://www.w3.org/2000/svg" width="201" height="194" viewBox="0 0 201 194" fill="none">
  <g opacity="0.5">
    <mask id="mask0_1535_2139" style="mask-type:luminance" maskUnits="userSpaceOnUse" x="26" y="25" width="148" height="143">
      <ellipse cx="72.784" cy="71.4131" rx="72.784" ry="71.4131" transform="matrix(0.87444 0.485134 -0.515015 0.857181 73.5576 0)" fill="white"/>
    </mask>
    <g mask="url(#mask0_1535_2139)">
      <rect width="1.8196" height="151.753" transform="matrix(0.87444 0.485134 -0.515015 0.857181 71.6206 -15.1768)" fill="url(#paint0_linear_1535_2139)"/>
      <rect width="1.8196" height="151.753" transform="matrix(0.87444 0.485134 -0.515015 0.857181 81.1667 -9.87988)" fill="url(#paint1_linear_1535_2139)"/>
      <rect width="1.8196" height="151.753" transform="matrix(0.87444 0.485134 -0.515015 0.857181 89.917 -5.02515)" fill="url(#paint2_linear_1535_2139)"/>
      <rect width="1.8196" height="151.753" transform="matrix(0.87444 0.485134 -0.515015 0.857181 99.4653 0.271484)" fill="url(#paint3_linear_1535_2139)"/>
      <rect width="1.8196" height="151.753" transform="matrix(0.87444 0.485134 -0.515015 0.857181 109.011 5.56738)" fill="url(#paint4_linear_1535_2139)"/>
      <rect width="1.8196" height="151.753" transform="matrix(0.87444 0.485134 -0.515015 0.857181 117.763 10.4229)" fill="url(#paint5_linear_1535_2139)"/>
      <rect width="1.8196" height="151.753" transform="matrix(0.87444 0.485134 -0.515015 0.857181 127.31 15.7195)" fill="url(#paint6_linear_1535_2139)"/>
      <rect width="1.8196" height="151.753" transform="matrix(0.87444 0.485134 -0.515015 0.857181 136.856 21.0156)" fill="url(#paint7_linear_1535_2139)"/>
      <rect width="1.8196" height="151.753" transform="matrix(0.87444 0.485134 -0.515015 0.857181 145.607 25.8713)" fill="url(#paint8_linear_1535_2139)"/>
      <rect width="1.8196" height="151.753" transform="matrix(0.87444 0.485134 -0.515015 0.857181 155.155 31.1677)" fill="url(#paint9_linear_1535_2139)"/>
      <rect width="1.8196" height="151.753" transform="matrix(0.87444 0.485134 -0.515015 0.857181 164.701 36.4639)" fill="url(#paint10_linear_1535_2139)"/>
      <rect width="1.8196" height="151.753" transform="matrix(0.87444 0.485134 -0.515015 0.857181 172.657 40.8779)" fill="url(#paint11_linear_1535_2139)"/>
      <rect width="1.8196" height="151.753" transform="matrix(0.87444 0.485134 -0.515015 0.857181 182.998 46.6162)" fill="url(#paint12_linear_1535_2139)"/>
      <rect width="1.8196" height="151.753" transform="matrix(0.87444 0.485134 -0.515015 0.857181 191.75 51.4709)" fill="url(#paint13_linear_1535_2139)"/>
      <rect width="1.8196" height="151.753" transform="matrix(0.87444 0.485134 -0.515015 0.857181 201.298 56.7673)" fill="url(#paint14_linear_1535_2139)"/>
    </g>
  </g>
  <defs>
    <linearGradient id="paint0_linear_1535_2139" x1="1.78491" y1="18.6737" x2="-1.04022" y2="18.7003" gradientUnits="userSpaceOnUse">
      <stop stopColor="#B0008F"/>
      <stop offset="1" stopColor="#0045E2"/>
    </linearGradient>
    <linearGradient id="paint1_linear_1535_2139" x1="1.78491" y1="18.6737" x2="-1.04022" y2="18.7003" gradientUnits="userSpaceOnUse">
      <stop stopColor="#B0008F"/>
      <stop offset="1" stopColor="#0045E2"/>
    </linearGradient>
    <linearGradient id="paint2_linear_1535_2139" x1="1.78491" y1="18.6737" x2="-1.04022" y2="18.7003" gradientUnits="userSpaceOnUse">
      <stop stopColor="#B0008F"/>
      <stop offset="1" stopColor="#0045E2"/>
    </linearGradient>
    <linearGradient id="paint3_linear_1535_2139" x1="1.78491" y1="18.6737" x2="-1.04022" y2="18.7003" gradientUnits="userSpaceOnUse">
      <stop stopColor="#B0008F"/>
      <stop offset="1" stopColor="#0045E2"/>
    </linearGradient>
    <linearGradient id="paint4_linear_1535_2139" x1="1.78491" y1="18.6737" x2="-1.04022" y2="18.7003" gradientUnits="userSpaceOnUse">
      <stop stopColor="#B0008F"/>
      <stop offset="1" stopColor="#0045E2"/>
    </linearGradient>
    <linearGradient id="paint5_linear_1535_2139" x1="1.78491" y1="18.6737" x2="-1.04022" y2="18.7003" gradientUnits="userSpaceOnUse">
      <stop stopColor="#B0008F"/>
      <stop offset="1" stopColor="#0045E2"/>
    </linearGradient>
    <linearGradient id="paint6_linear_1535_2139" x1="1.78491" y1="18.6737" x2="-1.04022" y2="18.7003" gradientUnits="userSpaceOnUse">
      <stop stopColor="#B0008F"/>
      <stop offset="1" stopColor="#0045E2"/>
    </linearGradient>
    <linearGradient id="paint7_linear_1535_2139" x1="1.78491" y1="18.6737" x2="-1.04022" y2="18.7003" gradientUnits="userSpaceOnUse">
      <stop stopColor="#B0008F"/>
      <stop offset="1" stopColor="#0045E2"/>
    </linearGradient>
    <linearGradient id="paint8_linear_1535_2139" x1="1.78491" y1="18.6737" x2="-1.04022" y2="18.7003" gradientUnits="userSpaceOnUse">
      <stop stopColor="#B0008F"/>
      <stop offset="1" stopColor="#0045E2"/>
    </linearGradient>
    <linearGradient id="paint9_linear_1535_2139" x1="1.78491" y1="18.6737" x2="-1.04022" y2="18.7003" gradientUnits="userSpaceOnUse">
      <stop stopColor="#B0008F"/>
      <stop offset="1" stopColor="#0045E2"/>
    </linearGradient>
    <linearGradient id="paint10_linear_1535_2139" x1="1.78491" y1="18.6737" x2="-1.04022" y2="18.7003" gradientUnits="userSpaceOnUse">
      <stop stopColor="#B0008F"/>
      <stop offset="1" stopColor="#0045E2"/>
    </linearGradient>
    <linearGradient id="paint11_linear_1535_2139" x1="1.78491" y1="18.6737" x2="-1.04022" y2="18.7003" gradientUnits="userSpaceOnUse">
      <stop stopColor="#B0008F"/>
      <stop offset="1" stopColor="#0045E2"/>
    </linearGradient>
    <linearGradient id="paint12_linear_1535_2139" x1="1.78491" y1="18.6737" x2="-1.04022" y2="18.7003" gradientUnits="userSpaceOnUse">
      <stop stopColor="#B0008F"/>
      <stop offset="1" stopColor="#0045E2"/>
    </linearGradient>
    <linearGradient id="paint13_linear_1535_2139" x1="1.78491" y1="18.6737" x2="-1.04022" y2="18.7003" gradientUnits="userSpaceOnUse">
      <stop stopColor="#B0008F"/>
      <stop offset="1" stopColor="#0045E2"/>
    </linearGradient>
    <linearGradient id="paint14_linear_1535_2139" x1="1.78491" y1="18.6737" x2="-1.04022" y2="18.7003" gradientUnits="userSpaceOnUse">
      <stop stopColor="#B0008F"/>
      <stop offset="1" stopColor="#0045E2"/>
    </linearGradient>
  </defs>
</svg>