<svg width="30" height="30" viewBox="0 0 30 30" fill="none" xmlns="http://www.w3.org/2000/svg">
<rect width="30" height="30" rx="15" fill="url(#paint0_linear_937_6176)"/>
<path d="M5.90137 23.7268L7.18753 19.0564C6.39237 17.6855 5.97523 16.133 5.97958 14.5459C5.97958 9.57271 10.0466 5.5293 15.0392 5.5293C17.4638 5.5293 19.7407 6.46772 21.4483 8.17157C23.1603 9.87543 24.1032 12.1415 24.0989 14.5502C24.0989 19.5234 20.0318 23.5668 15.0349 23.5668H15.0305C13.5141 23.5668 12.0237 23.1863 10.6984 22.4684L5.90137 23.7268ZM10.9287 20.8381L11.2025 21.0024C12.3583 21.6857 13.6835 22.0446 15.0349 22.0489H15.0392C19.1889 22.0489 22.5694 18.6888 22.5694 14.5546C22.5694 12.5523 21.7873 10.6711 20.3664 9.2527C18.9455 7.83426 17.051 7.05585 15.0392 7.05585C10.8896 7.05152 7.50908 10.4117 7.50908 14.5459C7.50908 15.96 7.90449 17.3395 8.66054 18.5331L8.83869 18.8185L8.07829 21.5819L10.9287 20.8381Z" fill="white"/>
<path d="M6.21875 23.4111L7.46147 18.9007C6.69237 17.5817 6.28827 16.0811 6.28827 14.5502C6.29262 9.75 10.2163 5.84497 15.0394 5.84497C17.3815 5.84497 19.5758 6.75312 21.2269 8.39643C22.8781 10.0397 23.7862 12.2279 23.7862 14.5545C23.7862 19.3547 19.8582 23.2598 15.0394 23.2598H15.0351C13.5708 23.2598 12.1325 22.8922 10.855 22.2003L6.21875 23.4111Z" fill="url(#paint1_linear_937_6176)"/>
<path d="M5.90137 23.7268L7.18753 19.0564C6.39237 17.6855 5.97523 16.133 5.97958 14.5459C5.97958 9.57271 10.0466 5.5293 15.0392 5.5293C17.4638 5.5293 19.7407 6.46772 21.4483 8.17157C23.1603 9.87543 24.1032 12.1415 24.0989 14.5502C24.0989 19.5234 20.0318 23.5668 15.0349 23.5668H15.0305C13.5141 23.5668 12.0237 23.1863 10.6984 22.4684L5.90137 23.7268ZM10.9287 20.8381L11.2025 21.0024C12.3583 21.6857 13.6835 22.0446 15.0349 22.0489H15.0392C19.1889 22.0489 22.5694 18.6888 22.5694 14.5546C22.5694 12.5523 21.7873 10.6711 20.3664 9.2527C18.9455 7.83426 17.051 7.05585 15.0392 7.05585C10.8896 7.05152 7.50908 10.4117 7.50908 14.5459C7.50908 15.96 7.90449 17.3395 8.66054 18.5331L8.83869 18.8185L8.07829 21.5819L10.9287 20.8381Z" fill="url(#paint2_linear_937_6176)"/>
<path fill-rule="evenodd" clip-rule="evenodd" d="M12.7752 10.7749C12.6057 10.3986 12.4276 10.39 12.2668 10.3857C12.1365 10.3813 11.9844 10.3813 11.8323 10.3813C11.6802 10.3813 11.4369 10.4376 11.2283 10.6624C11.0198 10.8873 10.4375 11.4322 10.4375 12.5436C10.4375 13.6507 11.25 14.7232 11.363 14.8745C11.476 15.0259 12.9316 17.3741 15.2302 18.2779C17.1421 19.0304 17.5331 18.879 17.9459 18.8401C18.3587 18.8012 19.2842 18.2952 19.4754 17.7676C19.6623 17.24 19.6623 16.7903 19.6058 16.6951C19.5493 16.6 19.3972 16.5438 19.1713 16.4313C18.9453 16.3189 17.833 15.774 17.6244 15.6962C17.4158 15.6227 17.2637 15.5837 17.116 15.8086C16.9639 16.0335 16.5294 16.5395 16.3991 16.6908C16.2687 16.8422 16.134 16.8595 15.9081 16.747C15.6821 16.6346 14.9521 16.3967 14.0874 15.627C13.4139 15.0302 12.9577 14.2907 12.8273 14.0658C12.697 13.841 12.8143 13.7199 12.9273 13.6074C13.0272 13.508 13.1532 13.3436 13.2662 13.2139C13.3792 13.0842 13.4183 12.989 13.4921 12.8377C13.566 12.6863 13.5313 12.5566 13.4748 12.4441C13.4183 12.336 12.9751 11.2203 12.7752 10.7749Z" fill="white"/>
<defs>
<linearGradient id="paint0_linear_937_6176" x1="14.9992" y1="29.9985" x2="14.9992" y2="-0.00104962" gradientUnits="userSpaceOnUse">
<stop stop-color="#20B038"/>
<stop offset="1" stop-color="#60D66A"/>
</linearGradient>
<linearGradient id="paint1_linear_937_6176" x1="15.002" y1="23.4103" x2="15.002" y2="5.84436" gradientUnits="userSpaceOnUse">
<stop stop-color="#20B038"/>
<stop offset="1" stop-color="#60D66A"/>
</linearGradient>
<linearGradient id="paint2_linear_937_6176" x1="15.0019" y1="23.7251" x2="15.0019" y2="5.5293" gradientUnits="userSpaceOnUse">
<stop stop-color="#F9F9F9"/>
<stop offset="1" stop-color="white"/>
</linearGradient>
</defs>
</svg>
