<svg width="26" height="27" viewBox="0 0 26 27" fill="none" xmlns="http://www.w3.org/2000/svg">
<rect y="0.713989" width="26" height="26" rx="13" fill="#FF0000"/>
<path d="M21.904 9.24876C21.6898 8.45321 21.0625 7.82595 20.267 7.61176C18.8136 7.21399 12.9999 7.21399 12.9999 7.21399C12.9999 7.21399 7.18627 7.21399 5.73285 7.59647C4.9526 7.81065 4.31004 8.45321 4.09586 9.24876C3.71338 10.7022 3.71338 13.7161 3.71338 13.7161C3.71338 13.7161 3.71338 16.7453 4.09586 18.1834C4.31004 18.979 4.9373 19.6062 5.73285 19.8204C7.20156 20.2182 12.9999 20.2182 12.9999 20.2182C12.9999 20.2182 18.8136 20.2182 20.267 19.8357C21.0625 19.6215 21.6898 18.9943 21.904 18.1987C22.2864 16.7453 22.2864 13.7314 22.2864 13.7314C22.2864 13.7314 22.3017 10.7022 21.904 9.24876Z" fill="white"/>
<path d="M11.1487 16.5005L15.9832 13.7161L11.1487 10.9316V16.5005Z" fill="#FF0000"/>
</svg>
